<svg width="228" height="205" viewBox="0 0 228 205" fill="none" xmlns="http://www.w3.org/2000/svg">
<path d="M105.342 132.358C105.342 131.738 105.404 130.87 105.528 129.754C105.776 128.638 105.962 127.46 106.086 126.22C106.334 124.98 106.582 123.802 106.83 122.686C106.954 121.818 107.078 121.012 107.202 120.268C106.954 122.252 106.706 124.298 106.458 126.406C106.334 128.638 106.272 130.746 106.272 132.73H109.992C110.736 133.226 111.48 133.846 112.224 134.59C113.092 135.334 113.526 136.202 113.526 137.194C113.526 138.558 112.968 139.674 111.852 140.542C110.86 141.41 109.868 142.34 108.876 143.332C108.628 143.208 108.132 143.146 107.388 143.146C106.768 143.022 106.024 142.898 105.156 142.774C104.412 142.65 103.668 142.588 102.924 142.588C102.18 142.464 101.684 142.402 101.436 142.402V144.076L107.202 144.448C106.458 145.068 105.776 146.37 105.156 148.354C104.66 150.338 104.288 152.508 104.04 154.864C103.792 157.096 103.544 159.328 103.296 161.56C103.172 163.792 103.11 165.342 103.11 166.21L102.738 172.906C101.002 175.758 99.8864 178.734 99.3904 181.834C98.8944 181.586 98.2744 181.4 97.5304 181.276C96.7864 181.276 96.0424 181.214 95.2984 181.09C94.6784 180.966 94.1204 180.718 93.6244 180.346C93.1284 180.098 92.8804 179.54 92.8804 178.672C92.8804 178.176 93.0044 177.556 93.2524 176.812L91.5784 176.254C90.8344 177.494 89.8424 178.548 88.6024 179.416C87.3624 180.284 85.9984 180.718 84.5104 180.718C82.4024 180.718 81.0384 179.912 80.4184 178.3C79.9224 176.812 79.6744 175.2 79.6744 173.464C79.6744 170.24 80.0464 167.016 80.7904 163.792C81.6584 160.444 82.0924 157.158 82.0924 153.934L81.9064 146.122L80.7904 145.936L79.8604 143.89C77.5044 144.138 74.8384 144.386 71.8624 144.634C69.0104 144.882 66.0344 145.006 62.9344 145.006C59.4624 145.006 56.0524 144.758 52.7044 144.262C49.3564 143.766 46.3184 142.836 43.5904 141.472C40.9864 140.108 38.8164 138.248 37.0804 135.892C35.4684 133.536 34.6624 130.436 34.6624 126.592C34.6624 123.864 34.9104 121.136 35.4064 118.408C35.9024 115.68 36.2744 112.952 36.5224 110.224H35.4064C35.0344 112.828 34.5384 115.494 33.9184 118.222C33.2984 120.826 32.9884 123.43 32.9884 126.034C32.9884 128.266 33.4224 130.374 34.2904 132.358C35.2824 134.218 35.7784 136.016 35.7784 137.752L36.8944 138.31C39.1264 139.922 40.9864 141.224 42.4744 142.216C43.9624 143.084 45.3264 143.766 46.5664 144.262C47.8064 144.758 48.9844 145.13 50.1004 145.378C51.3404 145.502 52.7044 145.564 54.1924 145.564C55.3084 145.564 56.6104 145.564 58.0984 145.564C59.5864 145.44 61.3844 145.378 63.4924 145.378L64.9804 146.68C61.6324 146.68 57.9744 146.556 54.0064 146.308C50.1624 146.06 46.5664 145.316 43.2184 144.076C39.9944 142.836 37.2664 140.914 35.0344 138.31C32.8024 135.582 31.6864 131.862 31.6864 127.15C31.6864 123.678 32.1824 120.268 33.1744 116.92C34.1664 113.572 34.6624 110.286 34.6624 107.062C34.6624 102.846 34.9104 98.816 35.4064 94.972C36.0264 91.004 36.7084 87.16 37.4524 83.44C38.1964 79.72 38.9404 76 39.6844 72.28C40.5524 68.56 41.2964 64.716 41.9164 60.748L46.0084 60.562C46.8764 60.81 47.4344 61.306 47.6824 62.05C48.0544 62.794 48.2404 63.538 48.2404 64.282L48.0544 66.886H49.7284C49.9764 66.142 50.3484 65.274 50.8444 64.282C51.3404 63.166 51.8984 62.112 52.5184 61.12C53.1384 60.128 53.8204 59.322 54.5644 58.702C55.4324 57.958 56.3624 57.586 57.3544 57.586C58.4704 57.586 59.3384 58.144 59.9584 59.26C60.5784 60.376 61.0124 61.678 61.2604 63.166C61.5084 64.53 61.6324 65.956 61.6324 67.444C61.7564 68.808 61.8184 69.862 61.8184 70.606C61.8184 73.954 61.5704 77.302 61.0744 80.65C60.7024 83.998 60.2064 87.346 59.5864 90.694C59.0904 94.042 58.5944 97.39 58.0984 100.738C57.7264 104.086 57.5404 107.496 57.5404 110.968C56.5484 112.704 55.9284 114.75 55.6804 117.106C55.5564 119.462 55.4944 121.632 55.4944 123.616C55.9904 123.864 57.1684 123.988 59.0284 123.988C60.1444 123.988 61.2604 123.988 62.3764 123.988C63.4924 123.864 64.2984 123.802 64.7944 123.802L65.9104 124.36C69.1344 124.36 72.3584 124.484 75.5824 124.732C78.8064 124.856 82.0304 125.042 85.2544 125.29C85.3784 124.546 85.5644 122.81 85.8124 120.082C86.1844 117.354 86.6184 114.564 87.1144 111.712C87.7344 108.86 88.3544 106.318 88.9744 104.086C89.7184 101.73 90.5244 100.552 91.3924 100.552C91.7644 100.552 92.1984 100.676 92.6944 100.924L91.3924 110.224C92.1364 107 92.9424 103.9 93.8104 100.924L96.6004 101.482C96.6004 100.366 96.9724 99.498 97.7164 98.878C98.5844 98.134 99.5144 97.762 100.506 97.762C101.746 97.762 102.924 98.072 104.04 98.692C105.28 99.312 106.334 100.056 107.202 100.924C106.458 102.164 105.776 104.024 105.156 106.504C104.536 108.984 103.978 111.588 103.482 114.316C102.986 117.044 102.552 119.71 102.18 122.314C101.808 124.918 101.498 126.964 101.25 128.452L101.994 128.638C102.614 124.67 103.358 120.206 104.226 115.246C105.218 110.162 106.582 105.76 108.318 102.04C108.566 102.784 108.876 103.528 109.248 104.272C109.744 104.892 109.992 105.636 109.992 106.504C109.992 108.24 109.682 110.224 109.062 112.456C108.442 114.564 108.008 116.486 107.76 118.222L105.528 117.664C105.528 118.408 105.466 119.4 105.342 120.64C105.218 121.88 105.094 123.244 104.97 124.732C104.846 126.096 104.66 127.398 104.412 128.638C104.288 129.878 104.226 130.87 104.226 131.614L105.342 132.358ZM82.0924 141.658C79.1164 141.658 76.1404 141.472 73.1644 141.1C70.1884 140.728 67.2124 140.542 64.2364 140.542H51.4024C52.7664 140.79 54.1304 140.976 55.4944 141.1C56.8584 141.1 58.2224 141.1 59.5864 141.1H63.6784L64.2364 141.658L82.0924 142.03V141.658ZM102.924 146.308C102.924 146.68 102.8 147.362 102.552 148.354C102.428 149.222 102.242 150.152 101.994 151.144C101.87 152.136 101.746 153.128 101.622 154.12C101.498 155.112 101.436 155.856 101.436 156.352V156.538C101.436 156.414 101.56 156.352 101.808 156.352C102.056 156.352 102.18 156.414 102.18 156.538H102.552C102.552 156.166 102.614 155.484 102.738 154.492C102.986 153.376 103.234 152.26 103.482 151.144C103.73 150.028 103.978 148.974 104.226 147.982C104.474 146.866 104.598 146.122 104.598 145.75L102.924 146.308ZM66.4684 128.266C67.4604 128.762 68.9484 129.072 70.9324 129.196C72.9164 129.32 75.0244 129.382 77.2564 129.382H82.4644C84.2004 129.382 85.6264 129.32 86.7424 129.196L66.4684 128.266ZM54.0064 126.964C56.1144 127.46 58.1604 127.77 60.1444 127.894C62.2524 127.894 64.3604 128.018 66.4684 128.266C64.6084 127.77 62.5624 127.46 60.3304 127.336C58.2224 127.088 56.1764 126.964 54.1924 126.964H54.0064ZM66.2824 145.564H68.8864C70.2504 145.564 71.4904 145.626 72.6064 145.75C73.8464 145.75 75.0864 145.812 76.3264 145.936L67.3984 146.494L66.2824 145.564ZM44.5204 139.426C45.6364 139.674 46.9384 139.984 48.4264 140.356C46.8144 139.736 45.5124 139.364 44.5204 139.24C43.5284 138.992 42.3504 138.372 40.9864 137.38C42.2264 138.496 43.4044 139.178 44.5204 139.426ZM89.1604 125.662C89.5324 124.67 89.7184 123.802 89.7184 123.058V121.384L88.9744 125.662H89.1604ZM195.997 166.954C195.997 167.698 195.687 168.38 195.067 169C194.447 169.62 193.703 170.178 192.835 170.674C192.091 171.17 191.223 171.604 190.231 171.976L187.999 172.906C186.883 172.41 185.581 171.976 184.093 171.604C182.605 171.356 180.993 171.17 179.257 171.046C177.645 170.922 176.033 170.798 174.421 170.674C172.809 170.674 171.383 170.674 170.143 170.674C164.315 170.674 158.487 170.798 152.659 171.046C146.955 171.418 141.189 171.728 135.361 171.976C136.725 172.1 138.027 172.162 139.267 172.162H143.359C146.955 172.162 150.551 172.1 154.147 171.976C157.743 171.852 161.339 171.79 164.935 171.79C168.159 171.79 171.321 171.914 174.421 172.162C177.645 172.41 180.869 172.844 184.093 173.464C182.233 174.084 179.319 174.518 175.351 174.766C171.507 175.138 167.415 175.386 163.075 175.51C158.859 175.758 154.767 175.882 150.799 175.882C146.831 176.006 143.731 176.068 141.499 176.068L140.011 174.022C139.763 174.022 139.515 174.022 139.267 174.022C139.143 174.146 138.957 174.208 138.709 174.208C138.213 174.208 137.717 174.146 137.221 174.022C136.725 174.022 136.167 174.022 135.547 174.022H134.245C133.873 174.022 133.501 174.146 133.129 174.394C132.013 174.394 130.897 174.332 129.781 174.208C128.789 174.084 127.735 174.022 126.619 174.022L122.899 155.608L127.177 153.376C132.013 150.152 136.725 146.866 141.313 143.518C146.025 140.046 150.365 136.326 154.333 132.358C158.425 128.266 162.083 123.926 165.307 119.338C168.655 114.626 171.383 109.418 173.491 103.714L172.933 102.598C174.421 99.622 175.475 96.894 176.095 94.414C176.715 91.81 177.025 89.206 177.025 86.602C177.025 82.262 176.033 79.348 174.049 77.86C172.065 76.372 169.523 75.628 166.423 75.628C162.207 75.628 158.549 76.806 155.449 79.162C152.349 81.394 149.745 84.06 147.637 87.16C147.017 86.168 146.087 85.548 144.847 85.3C143.731 84.928 143.173 84.246 143.173 83.254C143.173 81.89 143.855 80.526 145.219 79.162C146.707 77.798 147.885 76.744 148.753 76L147.637 74.326C147.141 74.698 146.149 75.38 144.661 76.372C143.173 77.24 141.623 78.232 140.011 79.348C138.399 80.34 136.849 81.27 135.361 82.138C133.997 82.882 133.067 83.254 132.571 83.254C131.083 83.254 130.339 82.448 130.339 80.836C130.339 77.488 131.517 74.264 133.873 71.164C136.229 67.94 139.081 65.15 142.429 62.794C145.901 60.314 149.621 58.33 153.589 56.842C157.557 55.354 161.215 54.61 164.563 54.61C169.523 54.61 174.111 55.168 178.327 56.284C182.667 57.4 186.449 59.198 189.673 61.678C192.897 64.158 195.439 67.382 197.299 71.35C199.159 75.194 200.089 79.844 200.089 85.3C200.089 92.12 198.725 98.94 195.997 105.76C193.393 112.58 189.921 119.028 185.581 125.104C181.241 131.18 176.281 136.822 170.701 142.03C165.245 147.114 159.665 151.392 153.961 154.864C155.201 154.74 156.689 154.616 158.425 154.492C160.285 154.368 162.207 154.244 164.191 154.12C166.175 153.996 168.035 153.934 169.771 153.934C171.631 153.81 173.181 153.748 174.421 153.748C176.157 153.748 178.017 153.996 180.001 154.492C181.985 154.864 183.659 155.608 185.023 156.724L184.651 157.84C181.055 157.468 177.521 157.282 174.049 157.282C172.437 157.282 170.515 157.344 168.283 157.468C166.175 157.468 164.005 157.53 161.773 157.654C159.541 157.778 157.309 157.902 155.077 158.026C152.969 158.15 151.109 158.274 149.497 158.398V158.584C150.737 158.584 152.287 158.584 154.147 158.584C156.131 158.46 158.115 158.398 160.099 158.398C162.207 158.274 164.191 158.212 166.051 158.212C167.911 158.088 169.523 158.026 170.887 158.026C173.119 158.026 175.289 158.15 177.397 158.398C179.629 158.522 181.861 158.708 184.093 158.956C183.721 159.576 183.535 160.072 183.535 160.444C183.535 161.436 184.155 162.056 185.395 162.304C186.759 162.552 188.185 162.862 189.673 163.234C191.285 163.482 192.711 163.854 193.951 164.35C195.315 164.846 195.997 165.714 195.997 166.954ZM128.107 151.516C131.331 149.532 134.927 146.866 138.895 143.518C142.987 140.046 147.017 136.264 150.985 132.172C155.077 127.956 158.921 123.492 162.517 118.78C166.113 114.068 169.151 109.356 171.631 104.644C169.771 108.736 167.167 113.138 163.819 117.85C160.595 122.562 156.937 127.15 152.845 131.614C148.877 135.954 144.723 139.922 140.383 143.518C136.043 147.114 131.951 149.78 128.107 151.516ZM158.983 131.056C154.643 135.396 150.179 139.55 145.591 143.518C141.003 147.486 136.105 151.144 130.897 154.492L131.827 154.678C137.035 151.454 141.809 147.796 146.149 143.704C150.613 139.612 154.891 135.396 158.983 131.056ZM152.473 152.446C154.829 151.33 157.185 149.408 159.541 146.68L148.567 154.306C149.559 153.81 150.861 153.19 152.473 152.446ZM126.619 175.138C126.867 175.138 127.549 175.138 128.665 175.138C129.781 175.262 130.959 175.386 132.199 175.51C133.439 175.634 134.555 175.758 135.547 175.882C136.663 176.13 137.345 176.316 137.593 176.44L126.805 175.696L126.619 175.138ZM124.945 158.398L129.409 156.166L129.223 155.608C128.479 156.228 127.673 156.662 126.805 156.91C125.937 157.158 125.131 157.468 124.387 157.84V158.398H124.945Z" fill="black"/>
</svg>
