<svg width="620" height="469" viewBox="0 0 620 469" fill="none" xmlns="http://www.w3.org/2000/svg">
<path d="M271.268 286.408C271.268 284.13 271.495 280.942 271.951 276.843C272.862 272.743 273.545 268.416 274 263.862C274.911 259.307 275.822 254.98 276.733 250.881C277.189 247.692 277.644 244.732 278.1 241.999C277.189 249.287 276.278 256.802 275.367 264.545C274.911 272.743 274.684 280.487 274.684 287.774H288.348C291.081 289.596 293.813 291.873 296.546 294.606C299.735 297.339 301.329 300.527 301.329 304.171C301.329 309.181 299.279 313.281 295.18 316.469C291.536 319.657 287.892 323.073 284.248 326.717C283.338 326.262 281.516 326.034 278.783 326.034C276.505 325.578 273.773 325.123 270.584 324.667C267.851 324.212 265.119 323.984 262.386 323.984C259.653 323.529 257.831 323.301 256.92 323.301V329.45L278.1 330.816C275.367 333.094 272.862 337.876 270.584 345.164C268.762 352.451 267.396 360.422 266.485 369.076C265.574 377.275 264.663 385.473 263.752 393.672C263.297 401.87 263.069 407.564 263.069 410.752L261.703 435.347C255.326 445.823 251.227 456.755 249.405 468.141C247.583 467.231 245.306 466.547 242.573 466.092C239.84 466.092 237.107 465.864 234.374 465.409C232.097 464.953 230.047 464.042 228.225 462.676C226.403 461.765 225.492 459.715 225.492 456.527C225.492 454.705 225.948 452.428 226.859 449.695L220.71 447.645C217.977 452.2 214.333 456.071 209.779 459.26C205.224 462.448 200.214 464.042 194.748 464.042C187.005 464.042 181.995 461.082 179.717 455.16C177.896 449.695 176.985 443.774 176.985 437.397C176.985 425.555 178.351 413.712 181.084 401.87C184.272 389.572 185.866 377.502 185.866 365.66L185.183 336.965L181.084 336.282L177.668 328.767C169.014 329.678 159.221 330.589 148.29 331.5C137.814 332.41 126.883 332.866 115.496 332.866C102.742 332.866 90.2169 331.955 77.9192 330.133C65.6214 328.311 54.4623 324.895 44.4419 319.885C34.8769 314.875 26.9062 308.043 20.5295 299.389C14.6084 290.735 11.6478 279.348 11.6478 265.228C11.6478 255.208 12.5588 245.187 14.3807 235.167C16.2025 225.147 17.569 215.126 18.4799 205.106H14.3807C13.0142 214.671 11.1923 224.463 8.91497 234.484C6.6376 244.049 5.49892 253.614 5.49892 263.179C5.49892 271.377 7.09308 279.12 10.2814 286.408C13.9252 293.24 15.7471 299.844 15.7471 306.221L19.8463 308.27C28.0448 314.192 34.8769 318.974 40.3426 322.618C45.8083 325.806 50.8185 328.311 55.3732 330.133C59.928 331.955 64.255 333.321 68.3542 334.232C72.909 334.688 77.9192 334.916 83.3848 334.916C87.4841 334.916 92.2666 334.916 97.7322 334.916C103.198 334.46 109.802 334.232 117.545 334.232L123.011 339.015C110.713 339.015 97.2768 338.559 82.7016 337.648C68.582 336.737 55.3732 334.005 43.0755 329.45C31.2332 324.895 21.2127 317.835 13.0142 308.27C4.81571 298.25 0.716454 284.586 0.716454 267.278C0.716454 254.525 2.53835 241.999 6.18213 229.701C9.82592 217.403 11.6478 205.333 11.6478 193.491C11.6478 178.005 12.5588 163.202 14.3807 149.083C16.658 134.507 19.1631 120.388 21.896 106.724C24.6288 93.0593 27.3616 79.3951 30.0945 65.7309C33.2828 52.0667 36.0156 37.9471 38.293 23.3719L53.3236 22.6887C56.5119 23.5997 58.5615 25.4215 59.4725 28.1544C60.8389 30.8872 61.5221 33.6201 61.5221 36.3529L60.8389 45.9178H66.9878C67.8987 43.185 69.2652 39.9967 71.0871 36.3529C72.909 32.2537 74.9586 28.3821 77.2359 24.7383C79.5133 21.0946 82.0184 18.134 84.7513 15.8566C87.9396 13.1238 91.3556 11.7574 94.9994 11.7574C99.0987 11.7574 102.287 13.807 104.564 17.9062C106.842 22.0055 108.436 26.788 109.347 32.2537C110.258 37.2639 110.713 42.5018 110.713 47.9675C111.169 52.9777 111.396 56.8492 111.396 59.582C111.396 71.8798 110.485 84.1776 108.664 96.4754C107.297 108.773 105.475 121.071 103.198 133.369C101.376 145.666 99.5541 157.964 97.7322 170.262C96.3658 182.56 95.6826 195.085 95.6826 207.839C92.0388 214.215 89.7615 221.73 88.8505 230.384C88.395 239.038 88.1673 247.009 88.1673 254.297C89.9892 255.208 94.3162 255.663 101.148 255.663C105.248 255.663 109.347 255.663 113.446 255.663C117.545 255.208 120.506 254.98 122.328 254.98L126.427 257.03C138.269 257.03 150.112 257.485 161.954 258.396C173.796 258.852 185.639 259.535 197.481 260.446C197.936 257.713 198.62 251.336 199.53 241.316C200.897 231.295 202.491 221.047 204.313 210.571C206.59 200.096 208.868 190.758 211.145 182.56C213.878 173.906 216.838 169.579 220.027 169.579C221.393 169.579 222.987 170.034 224.809 170.945L220.027 205.106C222.76 193.263 225.72 181.877 228.909 170.945L239.157 172.995C239.157 168.896 240.523 165.707 243.256 163.43C246.444 160.697 249.86 159.331 253.504 159.331C258.059 159.331 262.386 160.469 266.485 162.747C271.04 165.024 274.911 167.757 278.1 170.945C275.367 175.5 272.862 182.332 270.584 191.442C268.307 200.551 266.257 210.116 264.435 220.136C262.614 230.157 261.019 239.949 259.653 249.514C258.287 259.079 257.148 266.595 256.237 272.06L258.97 272.743C261.247 258.168 263.98 241.771 267.168 223.552C270.812 204.878 275.822 188.709 282.199 175.044C283.11 177.777 284.248 180.51 285.615 183.243C287.437 185.52 288.348 188.253 288.348 191.442C288.348 197.818 287.209 205.106 284.932 213.304C282.654 221.047 281.06 228.107 280.149 234.484L271.951 232.434C271.951 235.167 271.723 238.811 271.268 243.365C270.812 247.92 270.357 252.93 269.901 258.396C269.446 263.406 268.762 268.189 267.851 272.743C267.396 277.298 267.168 280.942 267.168 283.675L271.268 286.408ZM185.866 320.568C174.935 320.568 164.004 319.885 153.072 318.519C142.141 317.152 131.21 316.469 120.278 316.469H73.1367C78.1469 317.38 83.1571 318.063 88.1673 318.519C93.1775 318.519 98.1877 318.519 103.198 318.519H118.229L120.278 320.568L185.866 321.935V320.568ZM262.386 337.648C262.386 339.015 261.93 341.52 261.019 345.164C260.564 348.352 259.881 351.768 258.97 355.412C258.514 359.056 258.059 362.699 257.603 366.343C257.148 369.987 256.92 372.72 256.92 374.542V375.225C256.92 374.769 257.376 374.542 258.287 374.542C259.197 374.542 259.653 374.769 259.653 375.225H261.019C261.019 373.859 261.247 371.353 261.703 367.71C262.614 363.61 263.524 359.511 264.435 355.412C265.346 351.313 266.257 347.441 267.168 343.797C268.079 339.698 268.535 336.965 268.535 335.599L262.386 337.648ZM128.477 271.377C132.12 273.199 137.586 274.338 144.874 274.793C152.161 275.249 159.904 275.476 168.103 275.476H187.233C193.609 275.476 198.847 275.249 202.947 274.793L128.477 271.377ZM82.7016 266.595C90.4447 268.416 97.96 269.555 105.248 270.011C112.991 270.011 120.734 270.466 128.477 271.377C121.645 269.555 114.129 268.416 105.931 267.961C98.1877 267.05 90.6724 266.595 83.3848 266.595H82.7016ZM127.793 334.916H137.358C142.369 334.916 146.923 335.143 151.023 335.599C155.577 335.599 160.132 335.827 164.687 336.282L131.893 338.332L127.793 334.916ZM47.8579 312.37C51.9572 313.281 56.7397 314.419 62.2053 315.786C56.2842 313.508 51.5017 312.142 47.8579 311.686C44.2141 310.775 39.8871 308.498 34.8769 304.854C39.4317 308.954 43.7587 311.459 47.8579 312.37ZM211.828 261.812C213.195 258.168 213.878 254.98 213.878 252.247V246.098L211.145 261.812H211.828ZM604.258 413.485C604.258 416.218 603.119 418.723 600.841 421C598.564 423.277 595.831 425.327 592.643 427.149C589.91 428.971 586.722 430.565 583.078 431.931L574.879 435.347C570.78 433.526 565.998 431.931 560.532 430.565C555.066 429.654 549.145 428.971 542.769 428.515C536.847 428.06 530.926 427.604 525.005 427.149C519.084 427.149 513.846 427.149 509.291 427.149C487.884 427.149 466.477 427.604 445.07 428.515C424.118 429.882 402.938 431.02 381.531 431.931C386.541 432.387 391.324 432.615 395.879 432.615H410.909C424.118 432.615 437.327 432.387 450.535 431.931C463.744 431.476 476.953 431.248 490.161 431.248C502.004 431.248 513.618 431.704 525.005 432.615C536.847 433.526 548.69 435.12 560.532 437.397C553.7 439.674 542.996 441.269 528.421 442.18C514.302 443.546 499.271 444.457 483.329 444.912C467.843 445.823 452.813 446.279 438.238 446.279C423.662 446.734 412.276 446.962 404.077 446.962L398.611 439.447C397.7 439.447 396.789 439.447 395.879 439.447C395.423 439.902 394.74 440.13 393.829 440.13C392.007 440.13 390.185 439.902 388.363 439.447C386.541 439.447 384.492 439.447 382.214 439.447H377.432C376.065 439.447 374.699 439.902 373.333 440.813C369.233 440.813 365.134 440.585 361.035 440.13C357.391 439.674 353.52 439.447 349.42 439.447L335.756 371.809L351.47 363.61C369.233 351.768 386.541 339.698 403.394 327.4C420.702 314.647 436.643 300.983 451.219 286.408C466.249 271.377 479.686 255.436 491.528 238.583C503.826 221.275 513.846 202.145 521.589 181.193L519.54 177.094C525.005 166.163 528.877 156.142 531.154 147.033C533.431 137.468 534.57 127.903 534.57 118.338C534.57 102.397 530.926 91.6929 523.639 86.2272C516.351 80.7615 507.014 78.0287 495.627 78.0287C480.141 78.0287 466.705 82.3557 455.318 91.0097C443.931 99.2082 434.366 109.001 426.623 120.388C424.346 116.744 420.93 114.467 416.375 113.556C412.276 112.189 410.226 109.684 410.226 106.04C410.226 101.03 412.731 96.0199 417.741 91.0097C423.207 85.9995 427.534 82.128 430.722 79.3951L426.623 73.2463C424.801 74.6127 421.157 77.1178 415.692 80.7615C410.226 83.9499 404.533 87.5936 398.611 91.6929C392.69 95.3367 386.997 98.7527 381.531 101.941C376.521 104.674 373.105 106.04 371.283 106.04C365.817 106.04 363.084 103.08 363.084 97.1586C363.084 84.8608 367.411 73.0185 376.065 61.6317C384.719 49.7894 395.195 39.5412 407.493 30.8872C420.246 21.7778 433.911 14.4902 448.486 9.02451C463.061 3.55885 476.497 0.826018 488.795 0.826018C507.014 0.826018 523.867 2.87565 539.353 6.97491C555.294 11.0742 569.186 17.6785 581.028 26.788C592.871 35.8974 602.208 47.7397 609.04 62.3149C615.872 76.4345 619.288 93.5148 619.288 113.556C619.288 138.607 614.278 163.658 604.258 188.709C594.693 213.76 581.939 237.444 565.998 259.762C550.056 282.081 531.837 302.805 511.341 321.935C491.3 340.609 470.804 356.323 449.852 369.076C454.407 368.621 459.873 368.165 466.249 367.71C473.081 367.254 480.141 366.799 487.429 366.343C494.716 365.888 501.548 365.66 507.925 365.66C514.757 365.205 520.45 364.977 525.005 364.977C531.382 364.977 538.214 365.888 545.501 367.71C552.789 369.076 558.938 371.809 563.948 375.908L562.582 380.007C549.373 378.641 536.392 377.958 523.639 377.958C517.718 377.958 510.658 378.186 502.459 378.641C494.716 378.641 486.745 378.869 478.547 379.324C470.348 379.78 462.15 380.235 453.951 380.691C446.208 381.146 439.376 381.602 433.455 382.057V382.74C438.01 382.74 443.703 382.74 450.535 382.74C457.823 382.285 465.11 382.057 472.398 382.057C480.141 381.602 487.429 381.374 494.261 381.374C501.093 380.918 507.014 380.691 512.024 380.691C520.223 380.691 528.193 381.146 535.937 382.057C544.135 382.513 552.334 383.196 560.532 384.107C559.166 386.384 558.482 388.206 558.482 389.572C558.482 393.216 560.76 395.494 565.315 396.404C570.325 397.315 575.563 398.454 581.028 399.82C586.95 400.731 592.187 402.098 596.742 403.92C601.752 405.742 604.258 408.93 604.258 413.485ZM354.886 356.778C366.728 349.491 379.937 339.698 394.512 327.4C409.543 314.647 424.346 300.755 438.921 285.724C453.951 270.238 468.071 253.841 481.28 236.533C494.488 219.225 505.648 201.917 514.757 184.609C507.925 199.64 498.36 215.809 486.062 233.117C474.22 250.425 460.783 267.278 445.753 283.675C431.178 299.616 415.919 314.192 399.978 327.4C384.036 340.609 369.006 350.402 354.886 356.778ZM468.299 281.625C452.357 297.567 435.96 312.825 419.108 327.4C402.255 341.975 384.264 355.412 365.134 367.71L368.55 368.393C387.68 356.551 405.216 343.114 421.157 328.083C437.554 313.053 453.268 297.567 468.299 281.625ZM444.386 360.194C453.04 356.095 461.694 349.035 470.348 339.015L430.039 367.026C433.683 365.205 438.465 362.927 444.386 360.194ZM349.42 443.546C350.331 443.546 352.836 443.546 356.936 443.546C361.035 444.001 365.362 444.457 369.917 444.912C374.471 445.368 378.571 445.823 382.214 446.279C386.314 447.19 388.819 447.873 389.73 448.328L350.103 445.596L349.42 443.546ZM343.271 382.057L359.668 373.859L358.985 371.809C356.252 374.086 353.292 375.68 350.103 376.591C346.915 377.502 343.955 378.641 341.222 380.007V382.057H343.271Z" fill="black"/>
</svg>
