<svg width="178" height="122" viewBox="0 0 178 122" fill="none" xmlns="http://www.w3.org/2000/svg">
<path d="M26.8481 21.7182C38.161 11.0091 53.0575 5.35227 68.4793 3.15391L77.7357 1.83442C86.2766 0.616917 94.9419 0.544299 103.502 1.61849L112.908 2.79882C132.13 5.21091 150.792 12.9147 162.452 28.3857C173.438 42.9625 183.251 62.1888 174.753 77.5571C166.234 92.9638 120.79 112.481 103.637 119.414C99.304 121.165 94.6823 122 90.0084 122V122C85.4621 122 80.9587 121.208 76.7273 119.545C59.6982 112.854 13.9072 93.7164 3.46835 77.5571C-7.89747 59.963 10.9746 36.7446 26.8481 21.7182Z" fill="black"/>
</svg>
