<svg width="630" height="480" viewBox="0 0 630 480" fill="none" xmlns="http://www.w3.org/2000/svg">
<path d="M131.852 45.4327C145.621 31.971 162.723 22.6516 181.127 16.9878L216.074 6.23296C229.501 2.10089 243.47 0 257.518 0H318.864H398.731C411.994 0 425.191 1.8727 437.93 5.56266L471.572 15.3067C494.812 22.0379 516.008 34.5212 531.461 53.1382C573.216 103.443 651.31 213.405 624.532 305.143C613.505 342.919 536.523 393.829 493.833 431.325C487.197 437.154 462.2 444.178 453.818 446.966V446.966C425.043 456.537 391.076 480 360.751 480H284.863C254.613 480 225.696 464.431 200.593 447.552C187.954 439.054 171.437 429.909 150.244 421.471C136.476 415.989 121.363 414.653 107.246 410.145C60.5466 395.233 8.75234 339.113 2.34286 305.143C-16.7606 203.894 85.877 90.383 131.852 45.4327Z" fill="black"/>
</svg>
