<svg width="1131" height="1002" viewBox="0 0 1131 1002" fill="none" xmlns="http://www.w3.org/2000/svg">
<path fill-rule="evenodd" clip-rule="evenodd" d="M1130.84 642.269C1130.84 892.543 851.186 1001.46 573.546 1001.46C295.908 1001.46 4.3815 981.463 4.3815 726.463C4.3815 721.986 20.3495 642.997 24.3832 624.135C37.2586 563.93 62.9276 443.901 51.8815 349.964C43.9078 282.155 30.5135 205.695 19.9087 145.158C9.67058 86.7146 -8.33761 72.4623 4.3815 36.4639C17.1006 0.465412 183.936 -41.0201 215.728 85.463C225.164 123.006 223.616 172.761 204.336 236.963C201.04 247.939 198.615 258.434 197.001 268.463C195.28 279.155 194.482 289.316 194.533 298.963C194.657 321.987 199.622 342.08 208.452 359.463C242.982 427.438 336.604 453.951 430.809 452.073C509.967 450.495 589.538 428.872 634.809 394.957C649.08 384.266 666.309 359.463 666.309 359.463C675.756 340.334 690.455 324.537 708.809 311.917C728.82 298.158 753.176 288.177 779.809 281.775C888.371 255.679 1034.75 289.058 1078.83 368.464C1121.01 444.456 1130.84 543.596 1130.84 642.269Z" fill="black"/>
</svg>
