<svg width="299" height="369" viewBox="0 0 299 369" fill="none" xmlns="http://www.w3.org/2000/svg">
<path d="M288.615 201.868C288.615 288.623 227.887 332 155.707 357.159C151.927 358.44 147.821 358.379 144.082 356.986C71.7283 332 11 288.623 11 201.868V80.4116C11 75.8098 12.828 71.3965 16.082 68.1426C19.3359 64.8887 23.7492 63.0606 28.3509 63.0606C63.0528 63.0606 106.43 42.2395 136.621 15.8661C140.297 12.7255 144.973 11 149.808 11C154.642 11 159.318 12.7255 162.994 15.8661C193.358 42.413 236.562 63.0606 271.264 63.0606C275.866 63.0606 280.279 64.8887 283.533 68.1426C286.787 71.3965 288.615 75.8098 288.615 80.4116V201.868Z" stroke="black" stroke-width="20.48" stroke-linecap="round" stroke-linejoin="round"/>
</svg>
