<svg width="648" height="798" viewBox="0 0 648 798" fill="none" xmlns="http://www.w3.org/2000/svg">
<path d="M625 436.892C625 625.017 493.312 719.079 336.793 773.636C328.596 776.413 319.693 776.28 311.584 773.259C154.688 719.079 23 625.017 23 436.892V173.517C23 163.538 26.9641 153.968 34.0201 146.912C41.0762 139.856 50.6462 135.892 60.625 135.892C135.875 135.892 229.937 90.7419 295.405 33.5519C303.376 26.7417 313.516 23 324 23C334.484 23 344.624 26.7417 352.595 33.5519C418.439 91.1182 512.125 135.892 587.375 135.892C597.354 135.892 606.924 139.856 613.98 146.912C621.036 153.968 625 163.538 625 173.517V436.892Z" stroke="black" stroke-width="44.4103" stroke-linecap="round" stroke-linejoin="round"/>
</svg>
